<?xml version="1.0" encoding="utf-8"?>
<!-- Generator: Adobe Illustrator 17.0.2, SVG Export Plug-In . SVG Version: 6.00 Build 0)  -->
<!DOCTYPE svg PUBLIC "-//W3C//DTD SVG 1.1//EN" "http://www.w3.org/Graphics/SVG/1.1/DTD/svg11.dtd">
<svg version="1.1" id="Layer_1" xmlns="http://www.w3.org/2000/svg" xmlns:xlink="http://www.w3.org/1999/xlink" x="0px" y="0px"
	 width="500px" height="500px" viewBox="0 0 500 500" enable-background="new 0 0 500 500" xml:space="preserve">
<circle fill="#5DA50A" stroke="#ACEA3F" stroke-width="6.3811" stroke-miterlimit="10" cx="80.539" cy="158.558" r="56.154"/>
<path fill="#ACEA3F" d="M90.59,210.22c0,0,51.02-23.359,22.707-61.339c0,0-22.118-29.49-48.069-3.244
	c0,0-12.681,16.514-2.949,31.849c0,0,16.219,20.643,33.029-1.769c0,0,7.242-11.796-5.078-15.335c0,0-7.929-3.539-7.913,4.718
	c0,0-0.868,6.193,1.786,6.193c0,0-14.155,0.59-13.271-10.321c0,0-2.654-12.681,14.745-15.925c0,0,33.286-3.689,25.656,30.669
	c0,0-15.63,38.927-48.953,20.938c0,0-29.195-16.219-17.989-52.492c0,0,16.514-31.554,44.825-28.605c0,0,15.395,1.307,24.359,5.667
	c0,0,30.725,23.528,19.108,54.492c0,0-9.969,32.669-40.578,38.01L90.59,210.22z"/>
<g>
	<path fill="#FFFFFF" d="M192.841,185.289h-37.719c0-17.511,0-35.089,0-52.599h37.046v4.962h-31.784v18.856h30.359v4.888h-30.359
		v18.93h32.457V185.289z"/>
	<path fill="#FFFFFF" d="M206.399,148.17v20.815c0,7.74,4.656,12.176,12.17,12.096c7.14,0,12.176-5.562,12.176-12.696V148.17h4.962
		v37.12h-4.662l-0.147-6.234c-3.084,4.729-7.966,6.761-13.154,6.834c-9.618,0-16.379-6.234-16.379-16.831V148.17H206.399z"/>
	<path fill="#FFFFFF" d="M247.447,203.021V148.17h4.882l0.153,7.893c2.851-5.261,8.565-8.493,15.026-8.493
		c10.444,0.3,18.257,7.513,18.257,19.163c0,12.096-7.96,19.31-18.784,19.31c-5.708,0-11.57-2.631-14.574-8.266v25.244H247.447z
		 M280.737,166.732c0-9.245-6.014-14.28-13.981-14.28c-8.186,0-13.901,6.088-13.901,14.354c0,8.266,5.935,14.354,13.901,14.354
		C274.569,181.16,280.737,176.045,280.737,166.732z"/>
	<path fill="#FFFFFF" d="M300.144,132.691v21.94c3.084-5.035,7.966-6.913,12.928-6.987c10.37,0,15.48,6.841,15.48,16.831v20.815
		h-5.035v-20.815c0-7.44-3.61-12.022-11.044-12.022c-7.214,0-12.249,5.635-12.249,12.848v19.988h-5.035V132.69L300.144,132.691
		L300.144,132.691z"/>
	<path fill="#FFFFFF" d="M375.613,166.806c0,11.496-8.119,19.083-19.089,19.083c-10.817,0-19.083-7.587-19.083-19.083
		c0-11.496,7.966-19.31,19.083-19.31C367.348,147.497,375.613,155.31,375.613,166.806z M342.477,166.806
		c0,8.639,5.861,14.354,14.048,14.354c8.345,0,14.053-5.715,14.053-14.354c0-8.565-5.788-14.727-14.053-14.727
		C348.258,152.079,342.477,158.24,342.477,166.806z"/>
	<path fill="#FFFFFF" d="M389.692,148.17l0.3,6.088c2.405-4.962,7.36-6.687,11.796-6.687c3.383,0,5.708,0.753,8.412,2.631
		l-2.325,4.203c-1.879-1.272-3.983-1.952-6.387-1.952c-6.387,0.074-11.496,4.962-11.496,11.723v21.114h-5.035v-37.12H389.692z"/>
	<path fill="#FFFFFF" d="M422.541,136.52c0,4.735-7.14,4.735-7.14,0C415.401,131.791,422.541,131.791,422.541,136.52z
		 M416.38,148.016v37.273h5.035v-37.273H416.38z"/>
	<path fill="#FFFFFF" d="M464.329,148.17h4.729c0,12.396,0,24.724,0,37.12h-4.656v-7.367c-3.23,5.488-9.165,8.119-14.727,8.119
		c-10.524,0-18.936-7.513-18.936-19.31c0-11.723,8.493-19.089,19.009-19.089c5.708,0,11.796,2.631,14.58,7.893L464.329,148.17
		L464.329,148.17z M435.775,166.732c0,8.786,6.308,14.574,14.127,14.574c19.157,0,19.157-29.08,0-29.08
		C442.083,152.226,435.775,158.014,435.775,166.732z"/>
</g>
</svg>
