<?xml version="1.0" encoding="utf-8"?>
<!-- Generator: Adobe Illustrator 17.0.2, SVG Export Plug-In . SVG Version: 6.00 Build 0)  -->
<!DOCTYPE svg PUBLIC "-//W3C//DTD SVG 1.1//EN" "http://www.w3.org/Graphics/SVG/1.1/DTD/svg11.dtd">
<svg version="1.1" id="Layer_1" xmlns="http://www.w3.org/2000/svg" xmlns:xlink="http://www.w3.org/1999/xlink" x="0px" y="0px"
	 width="500px" height="500px" viewBox="0 0 500 500" enable-background="new 0 0 500 500" xml:space="preserve">
<circle fill="#5DA50A" stroke="#ACEA3F" stroke-width="15.2025" stroke-miterlimit="10" cx="243.536" cy="147.918" r="133.782"/>
<path fill="#ACEA3F" d="M267.482,270.997c0,0,121.551-55.65,54.098-146.135c0,0-52.693-70.257-114.519-7.728
	c0,0-30.211,39.344-7.026,75.878c0,0,38.641,49.18,78.688-4.215c0,0,17.253-28.103-12.099-36.534c0,0-18.89-8.431-18.852,11.241
	c0,0-2.069,14.754,4.254,14.754c0,0-33.723,1.405-31.616-24.59c0,0-6.323-30.211,35.129-37.939c0,0,79.302-8.789,61.124,73.067
	c0,0-37.236,92.74-116.627,49.883c0,0-69.555-38.641-42.857-125.058c0,0,39.344-75.175,106.791-68.149
	c0,0,36.677,3.115,58.034,13.501c0,0,73.2,56.053,45.522,129.823c0,0-23.751,77.832-96.674,90.555L267.482,270.997z"/>
<g>
	<path fill="#FFFFFF" d="M66.431,382.771H9.007c0-26.658,0-53.419,0-80.077h56.399v7.554H17.018v28.707h46.219v7.442H17.018v28.819
		h49.413V382.771z"/>
	<path fill="#FFFFFF" d="M87.072,326.26v31.688c0,11.783,7.088,18.536,18.527,18.415c10.87,0,18.536-8.467,18.536-19.328V326.26
		h7.554v56.511h-7.098l-0.224-9.491c-4.695,7.2-12.127,10.293-20.026,10.404c-14.642,0-24.935-9.491-24.935-25.624v-31.8H87.072z"/>
	<path fill="#FFFFFF" d="M149.563,409.765V326.26h7.433l0.233,12.016c4.341-8.01,13.04-12.929,22.876-12.929
		c15.9,0.456,27.794,11.438,27.794,29.173c0,18.415-12.118,29.397-28.596,29.397c-8.69,0-17.614-4.005-22.187-12.584v38.432H149.563
		z M200.243,354.52c0-14.074-9.156-21.74-21.284-21.74c-12.463,0-21.163,9.268-21.163,21.852c0,12.584,9.035,21.852,21.163,21.852
		C190.854,376.484,200.243,368.697,200.243,354.52z"/>
	<path fill="#FFFFFF" d="M229.789,302.695v33.402c4.695-7.666,12.127-10.525,19.682-10.637c15.788,0,23.566,10.414,23.566,25.624
		v31.688h-7.666v-31.688c0-11.326-5.496-18.303-16.813-18.303c-10.982,0-18.648,8.579-18.648,19.56v30.43h-7.666v-80.077H229.789z"
		/>
	<path fill="#FFFFFF" d="M344.683,354.632c0,17.502-12.36,29.052-29.061,29.052c-16.468,0-29.052-11.55-29.052-29.052
		c0-17.502,12.128-29.397,29.052-29.397C332.1,325.236,344.683,337.13,344.683,354.632z M294.236,354.632
		c0,13.152,8.923,21.852,21.386,21.852c12.705,0,21.395-8.7,21.395-21.852c0-13.04-8.812-22.42-21.395-22.42
		C303.038,332.212,294.236,341.592,294.236,354.632z"/>
	<path fill="#FFFFFF" d="M366.116,326.26l0.456,9.268c3.661-7.554,11.205-10.181,17.958-10.181c5.151,0,8.69,1.146,12.807,4.005
		l-3.539,6.399c-2.86-1.937-6.064-2.971-9.724-2.971c-9.724,0.112-17.502,7.554-17.502,17.847v32.144h-7.666V326.26H366.116z"/>
	<path fill="#FFFFFF" d="M416.126,308.525c0,7.209-10.87,7.209-10.87,0C405.256,301.325,416.126,301.325,416.126,308.525z
		 M406.746,326.027v56.744h7.666v-56.744H406.746z"/>
	<path fill="#FFFFFF" d="M479.744,326.26h7.2c0,18.871,0,37.64,0,56.511h-7.088v-11.215c-4.918,8.355-13.953,12.36-22.42,12.36
		c-16.021,0-28.828-11.438-28.828-29.397c0-17.847,12.929-29.061,28.94-29.061c8.69,0,17.958,4.005,22.196,12.016V326.26z
		 M436.273,354.52c0,13.376,9.603,22.187,21.507,22.187c29.164,0,29.164-44.272,0-44.272
		C445.876,332.436,436.273,341.247,436.273,354.52z"/>
</g>
</svg>
